<mxfile host="Electron" agent="Mozilla/5.0 (Macintosh; Intel Mac OS X 10_15_7) AppleWebKit/537.36 (KHTML, like Gecko) draw.io/25.0.2 Chrome/128.0.6613.186 Electron/32.2.5 Safari/537.36" version="25.0.2">
  <diagram name="Page-1" id="-Ex_mGIn5pibnia_YC_9">
    <mxGraphModel dx="1065" dy="767" grid="1" gridSize="12.5" guides="1" tooltips="1" connect="1" arrows="1" fold="1" page="1" pageScale="1" pageWidth="600" pageHeight="400" math="0" shadow="0">
      <root>
        <mxCell id="0" />
        <mxCell id="1" parent="0" />
        <mxCell id="aNcpbkEtWrwuVBVgQpSq-32" value="" style="rounded=0;whiteSpace=wrap;html=1;strokeColor=none;fontFamily=Courier;fontSize=11;" parent="1" vertex="1">
          <mxGeometry x="75" y="1350" width="450" height="250" as="geometry" />
        </mxCell>
        <mxCell id="9D4-ZQyyOpuwKt-p3H_N-226" value="" style="rounded=0;whiteSpace=wrap;html=1;strokeColor=none;fontFamily=Courier;fontSize=9.5;" parent="1" vertex="1">
          <mxGeometry x="12.5" y="1037.5" width="575" height="250" as="geometry" />
        </mxCell>
        <mxCell id="9D4-ZQyyOpuwKt-p3H_N-223" value="" style="rounded=0;whiteSpace=wrap;html=1;strokeColor=none;fontFamily=Courier;" parent="1" vertex="1">
          <mxGeometry x="50" y="649.75" width="500" height="350" as="geometry" />
        </mxCell>
        <mxCell id="9D4-ZQyyOpuwKt-p3H_N-220" value="" style="rounded=0;whiteSpace=wrap;html=1;strokeColor=none;fillColor=#FFFFFF;fontFamily=Courier;" parent="1" vertex="1">
          <mxGeometry x="50.5" y="250" width="500" height="350" as="geometry" />
        </mxCell>
        <mxCell id="9D4-ZQyyOpuwKt-p3H_N-93" style="edgeStyle=orthogonalEdgeStyle;rounded=0;orthogonalLoop=1;jettySize=auto;html=1;exitX=1;exitY=0.5;exitDx=0;exitDy=0;entryX=0;entryY=0.5;entryDx=0;entryDy=0;strokeWidth=1.5;endArrow=blockThin;endFill=1;fontFamily=Courier;" parent="1" source="9D4-ZQyyOpuwKt-p3H_N-90" target="9D4-ZQyyOpuwKt-p3H_N-91" edge="1">
          <mxGeometry relative="1" as="geometry" />
        </mxCell>
        <mxCell id="9D4-ZQyyOpuwKt-p3H_N-90" value="A" style="rounded=0;whiteSpace=wrap;html=1;fontSize=15;fontFamily=Courier;strokeWidth=1.5;" parent="1" vertex="1">
          <mxGeometry x="62.5" y="699" width="37.5" height="37" as="geometry" />
        </mxCell>
        <mxCell id="9D4-ZQyyOpuwKt-p3H_N-91" value="B" style="rounded=0;whiteSpace=wrap;html=1;fontSize=15;fontFamily=Courier;strokeWidth=1.5;" parent="1" vertex="1">
          <mxGeometry x="175" y="699" width="37.5" height="37" as="geometry" />
        </mxCell>
        <mxCell id="9D4-ZQyyOpuwKt-p3H_N-95" style="edgeStyle=orthogonalEdgeStyle;rounded=0;orthogonalLoop=1;jettySize=auto;html=1;exitX=1;exitY=0.5;exitDx=0;exitDy=0;entryX=0;entryY=0.5;entryDx=0;entryDy=0;strokeWidth=1.5;endArrow=blockThin;endFill=1;fontFamily=Courier;" parent="1" source="9D4-ZQyyOpuwKt-p3H_N-96" target="9D4-ZQyyOpuwKt-p3H_N-97" edge="1">
          <mxGeometry relative="1" as="geometry" />
        </mxCell>
        <mxCell id="9D4-ZQyyOpuwKt-p3H_N-96" value="A" style="rounded=0;whiteSpace=wrap;html=1;fontSize=15;fontFamily=Courier;strokeWidth=1.5;" parent="1" vertex="1">
          <mxGeometry x="62.5" y="762.5" width="37.5" height="37" as="geometry" />
        </mxCell>
        <mxCell id="9D4-ZQyyOpuwKt-p3H_N-97" value="C" style="rounded=0;whiteSpace=wrap;html=1;fontSize=15;fontFamily=Courier;strokeWidth=1.5;" parent="1" vertex="1">
          <mxGeometry x="175" y="762.5" width="37.5" height="37" as="geometry" />
        </mxCell>
        <mxCell id="9D4-ZQyyOpuwKt-p3H_N-98" style="edgeStyle=orthogonalEdgeStyle;rounded=0;orthogonalLoop=1;jettySize=auto;html=1;exitX=1;exitY=0.5;exitDx=0;exitDy=0;entryX=0;entryY=0.25;entryDx=0;entryDy=0;strokeWidth=1.5;endArrow=blockThin;endFill=1;fontFamily=Courier;" parent="1" source="9D4-ZQyyOpuwKt-p3H_N-99" target="9D4-ZQyyOpuwKt-p3H_N-100" edge="1">
          <mxGeometry relative="1" as="geometry" />
        </mxCell>
        <mxCell id="9D4-ZQyyOpuwKt-p3H_N-99" value="B" style="rounded=0;whiteSpace=wrap;html=1;fontSize=15;fontFamily=Courier;strokeWidth=1.5;" parent="1" vertex="1">
          <mxGeometry x="62.5" y="825" width="37.5" height="37" as="geometry" />
        </mxCell>
        <mxCell id="9D4-ZQyyOpuwKt-p3H_N-100" value="D" style="rounded=0;whiteSpace=wrap;html=1;fontSize=15;fontFamily=Courier;strokeWidth=1.5;" parent="1" vertex="1">
          <mxGeometry x="175" y="849" width="37.5" height="37.5" as="geometry" />
        </mxCell>
        <mxCell id="9D4-ZQyyOpuwKt-p3H_N-103" value="&lt;font style=&quot;font-size: 21px;&quot;&gt;rules&lt;/font&gt;" style="text;html=1;align=center;verticalAlign=middle;whiteSpace=wrap;rounded=0;fontSize=15;fontFamily=Courier;" parent="1" vertex="1">
          <mxGeometry x="100" y="649" width="75" height="25" as="geometry" />
        </mxCell>
        <mxCell id="9D4-ZQyyOpuwKt-p3H_N-104" value="&lt;font style=&quot;font-size: 21px;&quot;&gt;workflow&lt;/font&gt;" style="text;html=1;align=center;verticalAlign=middle;whiteSpace=wrap;rounded=0;fontSize=15;fontFamily=Courier;" parent="1" vertex="1">
          <mxGeometry x="356.75" y="649.75" width="100" height="25" as="geometry" />
        </mxCell>
        <mxCell id="9D4-ZQyyOpuwKt-p3H_N-111" style="edgeStyle=orthogonalEdgeStyle;rounded=0;orthogonalLoop=1;jettySize=auto;html=1;exitX=1;exitY=0.5;exitDx=0;exitDy=0;entryX=0;entryY=0.5;entryDx=0;entryDy=0;strokeWidth=1.5;endArrow=blockThin;endFill=1;fontFamily=Courier;" parent="1" source="9D4-ZQyyOpuwKt-p3H_N-112" target="9D4-ZQyyOpuwKt-p3H_N-113" edge="1">
          <mxGeometry relative="1" as="geometry" />
        </mxCell>
        <mxCell id="9D4-ZQyyOpuwKt-p3H_N-112" value="C" style="rounded=0;whiteSpace=wrap;html=1;fontSize=15;fontFamily=Courier;strokeWidth=1.5;" parent="1" vertex="1">
          <mxGeometry x="62.5" y="936.5" width="37.5" height="37.5" as="geometry" />
        </mxCell>
        <mxCell id="9D4-ZQyyOpuwKt-p3H_N-113" value="E" style="rounded=0;whiteSpace=wrap;html=1;fontSize=15;fontFamily=Courier;strokeWidth=1.5;" parent="1" vertex="1">
          <mxGeometry x="175" y="936.5" width="37.5" height="37.5" as="geometry" />
        </mxCell>
        <mxCell id="9D4-ZQyyOpuwKt-p3H_N-121" style="edgeStyle=orthogonalEdgeStyle;rounded=0;orthogonalLoop=1;jettySize=auto;html=1;exitX=1;exitY=0.5;exitDx=0;exitDy=0;entryX=0;entryY=0.75;entryDx=0;entryDy=0;strokeWidth=1.5;endArrow=blockThin;endFill=1;fontFamily=Courier;" parent="1" source="9D4-ZQyyOpuwKt-p3H_N-120" target="9D4-ZQyyOpuwKt-p3H_N-100" edge="1">
          <mxGeometry relative="1" as="geometry" />
        </mxCell>
        <mxCell id="9D4-ZQyyOpuwKt-p3H_N-120" value="C" style="rounded=0;whiteSpace=wrap;html=1;fontSize=15;fontFamily=Courier;strokeWidth=1.5;" parent="1" vertex="1">
          <mxGeometry x="62.5" y="874.5" width="37.5" height="37.5" as="geometry" />
        </mxCell>
        <mxCell id="9D4-ZQyyOpuwKt-p3H_N-132" value="&lt;font style=&quot;font-size: 60px;&quot;&gt;â‡’&lt;/font&gt;" style="text;html=1;align=center;verticalAlign=middle;whiteSpace=wrap;rounded=0;fontFamily=Courier;fontSize=60;fontStyle=0" parent="1" vertex="1">
          <mxGeometry x="212.5" y="699" width="87.5" height="275" as="geometry" />
        </mxCell>
        <mxCell id="9D4-ZQyyOpuwKt-p3H_N-124" style="edgeStyle=orthogonalEdgeStyle;rounded=0;orthogonalLoop=1;jettySize=auto;html=1;exitX=1;exitY=0.5;exitDx=0;exitDy=0;entryX=0;entryY=0.5;entryDx=0;entryDy=0;endArrow=blockThin;endFill=1;strokeWidth=1.5;fontFamily=Courier;" parent="1" source="9D4-ZQyyOpuwKt-p3H_N-115" target="9D4-ZQyyOpuwKt-p3H_N-116" edge="1">
          <mxGeometry relative="1" as="geometry" />
        </mxCell>
        <mxCell id="9D4-ZQyyOpuwKt-p3H_N-125" style="edgeStyle=orthogonalEdgeStyle;rounded=0;orthogonalLoop=1;jettySize=auto;html=1;exitX=1;exitY=0.5;exitDx=0;exitDy=0;entryX=0;entryY=0.5;entryDx=0;entryDy=0;endArrow=blockThin;endFill=1;strokeWidth=1.5;fontFamily=Courier;" parent="1" source="9D4-ZQyyOpuwKt-p3H_N-115" target="9D4-ZQyyOpuwKt-p3H_N-117" edge="1">
          <mxGeometry relative="1" as="geometry" />
        </mxCell>
        <mxCell id="9D4-ZQyyOpuwKt-p3H_N-115" value="A" style="rounded=0;whiteSpace=wrap;html=1;fontSize=15;fontFamily=Courier;strokeWidth=1.5;" parent="1" vertex="1">
          <mxGeometry x="300.5" y="780.5" width="37.5" height="37.5" as="geometry" />
        </mxCell>
        <mxCell id="9D4-ZQyyOpuwKt-p3H_N-127" style="edgeStyle=orthogonalEdgeStyle;rounded=0;orthogonalLoop=1;jettySize=auto;html=1;exitX=1;exitY=0.5;exitDx=0;exitDy=0;entryX=0;entryY=0.25;entryDx=0;entryDy=0;endArrow=blockThin;endFill=1;strokeWidth=1.5;fontFamily=Courier;" parent="1" source="9D4-ZQyyOpuwKt-p3H_N-116" target="9D4-ZQyyOpuwKt-p3H_N-118" edge="1">
          <mxGeometry relative="1" as="geometry" />
        </mxCell>
        <mxCell id="9D4-ZQyyOpuwKt-p3H_N-116" value="B" style="rounded=0;whiteSpace=wrap;html=1;fontSize=15;fontFamily=Courier;strokeWidth=1.5;" parent="1" vertex="1">
          <mxGeometry x="388" y="749" width="37.5" height="37.5" as="geometry" />
        </mxCell>
        <mxCell id="9D4-ZQyyOpuwKt-p3H_N-128" style="edgeStyle=orthogonalEdgeStyle;rounded=0;orthogonalLoop=1;jettySize=auto;html=1;exitX=1;exitY=0.5;exitDx=0;exitDy=0;entryX=0;entryY=0.75;entryDx=0;entryDy=0;endArrow=blockThin;endFill=1;strokeWidth=1.5;fontFamily=Courier;" parent="1" source="9D4-ZQyyOpuwKt-p3H_N-117" target="9D4-ZQyyOpuwKt-p3H_N-118" edge="1">
          <mxGeometry relative="1" as="geometry" />
        </mxCell>
        <mxCell id="9D4-ZQyyOpuwKt-p3H_N-129" style="edgeStyle=orthogonalEdgeStyle;rounded=0;orthogonalLoop=1;jettySize=auto;html=1;exitX=0.5;exitY=1;exitDx=0;exitDy=0;entryX=0.5;entryY=0;entryDx=0;entryDy=0;endArrow=blockThin;endFill=1;strokeWidth=1.5;fontFamily=Courier;" parent="1" source="9D4-ZQyyOpuwKt-p3H_N-117" target="9D4-ZQyyOpuwKt-p3H_N-119" edge="1">
          <mxGeometry relative="1" as="geometry" />
        </mxCell>
        <mxCell id="9D4-ZQyyOpuwKt-p3H_N-117" value="C" style="rounded=0;whiteSpace=wrap;html=1;fontSize=15;fontFamily=Courier;strokeWidth=1.5;" parent="1" vertex="1">
          <mxGeometry x="388" y="812" width="37.5" height="37" as="geometry" />
        </mxCell>
        <mxCell id="9D4-ZQyyOpuwKt-p3H_N-118" value="D" style="rounded=0;whiteSpace=wrap;html=1;fontSize=15;fontFamily=Courier;strokeWidth=1.5;" parent="1" vertex="1">
          <mxGeometry x="475.5" y="780.75" width="37.5" height="37" as="geometry" />
        </mxCell>
        <mxCell id="9D4-ZQyyOpuwKt-p3H_N-119" value="E" style="rounded=0;whiteSpace=wrap;html=1;fontSize=15;fontFamily=Courier;strokeWidth=1.5;" parent="1" vertex="1">
          <mxGeometry x="388" y="886.5" width="37.5" height="37" as="geometry" />
        </mxCell>
        <mxCell id="9D4-ZQyyOpuwKt-p3H_N-149" value="&lt;font style=&quot;font-size: 21px;&quot;&gt;processes&lt;/font&gt;" style="text;html=1;align=center;verticalAlign=middle;whiteSpace=wrap;rounded=0;fontSize=15;fontFamily=Courier;" parent="1" vertex="1">
          <mxGeometry x="82.25" y="250" width="100" height="25" as="geometry" />
        </mxCell>
        <mxCell id="9D4-ZQyyOpuwKt-p3H_N-162" style="edgeStyle=orthogonalEdgeStyle;rounded=0;orthogonalLoop=1;jettySize=auto;html=1;exitX=1;exitY=0.5;exitDx=0;exitDy=0;strokeWidth=1.5;endArrow=blockThin;endFill=1;fontFamily=Courier;" parent="1" source="9D4-ZQyyOpuwKt-p3H_N-150" edge="1">
          <mxGeometry relative="1" as="geometry">
            <mxPoint x="169.25" y="318.55555555555554" as="targetPoint" />
          </mxGeometry>
        </mxCell>
        <mxCell id="9D4-ZQyyOpuwKt-p3H_N-150" value="1" style="rounded=0;whiteSpace=wrap;html=1;fontSize=15;fontFamily=Courier;strokeWidth=1.5;" parent="1" vertex="1">
          <mxGeometry x="106.75" y="300" width="37.5" height="37" as="geometry" />
        </mxCell>
        <mxCell id="9D4-ZQyyOpuwKt-p3H_N-152" value="&lt;font style=&quot;font-size: 21px;&quot;&gt;workflow&lt;/font&gt;" style="text;html=1;align=center;verticalAlign=middle;whiteSpace=wrap;rounded=0;fontSize=15;fontFamily=Courier;" parent="1" vertex="1">
          <mxGeometry x="356.75" y="250" width="100" height="25" as="geometry" />
        </mxCell>
        <mxCell id="9D4-ZQyyOpuwKt-p3H_N-164" style="edgeStyle=orthogonalEdgeStyle;rounded=0;orthogonalLoop=1;jettySize=auto;html=1;exitX=1;exitY=0.5;exitDx=0;exitDy=0;strokeWidth=1.5;endArrow=blockThin;endFill=1;fontFamily=Courier;" parent="1" source="9D4-ZQyyOpuwKt-p3H_N-153" edge="1">
          <mxGeometry relative="1" as="geometry">
            <mxPoint x="169.25" y="381.2222222222222" as="targetPoint" />
          </mxGeometry>
        </mxCell>
        <mxCell id="9D4-ZQyyOpuwKt-p3H_N-153" value="2" style="rounded=0;whiteSpace=wrap;html=1;fontSize=15;fontFamily=Courier;strokeWidth=1.5;" parent="1" vertex="1">
          <mxGeometry x="106.75" y="362.5" width="37.5" height="37" as="geometry" />
        </mxCell>
        <mxCell id="9D4-ZQyyOpuwKt-p3H_N-165" style="edgeStyle=orthogonalEdgeStyle;rounded=0;orthogonalLoop=1;jettySize=auto;html=1;exitX=1;exitY=0.5;exitDx=0;exitDy=0;strokeWidth=1.5;endArrow=blockThin;endFill=1;fontFamily=Courier;" parent="1" source="9D4-ZQyyOpuwKt-p3H_N-154" edge="1">
          <mxGeometry relative="1" as="geometry">
            <mxPoint x="169.25" y="443.44444444444446" as="targetPoint" />
          </mxGeometry>
        </mxCell>
        <mxCell id="9D4-ZQyyOpuwKt-p3H_N-154" value="3" style="rounded=0;whiteSpace=wrap;html=1;fontSize=15;fontFamily=Courier;strokeWidth=1.5;" parent="1" vertex="1">
          <mxGeometry x="107.25" y="425" width="37.5" height="37" as="geometry" />
        </mxCell>
        <mxCell id="9D4-ZQyyOpuwKt-p3H_N-172" style="edgeStyle=orthogonalEdgeStyle;rounded=0;orthogonalLoop=1;jettySize=auto;html=1;exitX=1;exitY=0.5;exitDx=0;exitDy=0;strokeWidth=1.5;endArrow=blockThin;endFill=1;fontFamily=Courier;" parent="1" source="9D4-ZQyyOpuwKt-p3H_N-155" edge="1">
          <mxGeometry relative="1" as="geometry">
            <mxPoint x="169.25" y="505.9879518072289" as="targetPoint" />
          </mxGeometry>
        </mxCell>
        <mxCell id="9D4-ZQyyOpuwKt-p3H_N-155" value="4" style="rounded=0;whiteSpace=wrap;html=1;fontSize=15;fontFamily=Courier;strokeWidth=1.5;" parent="1" vertex="1">
          <mxGeometry x="107.25" y="487.5" width="37.5" height="37" as="geometry" />
        </mxCell>
        <mxCell id="9D4-ZQyyOpuwKt-p3H_N-168" style="edgeStyle=orthogonalEdgeStyle;rounded=0;orthogonalLoop=1;jettySize=auto;html=1;exitX=1;exitY=0.5;exitDx=0;exitDy=0;strokeWidth=1.5;endArrow=blockThin;endFill=1;fontFamily=Courier;" parent="1" source="9D4-ZQyyOpuwKt-p3H_N-156" edge="1">
          <mxGeometry relative="1" as="geometry">
            <mxPoint x="169.25" y="568.3333333333334" as="targetPoint" />
          </mxGeometry>
        </mxCell>
        <mxCell id="9D4-ZQyyOpuwKt-p3H_N-156" value="5" style="rounded=0;whiteSpace=wrap;html=1;fontSize=15;fontFamily=Courier;strokeWidth=1.5;" parent="1" vertex="1">
          <mxGeometry x="107.25" y="550" width="37.5" height="37" as="geometry" />
        </mxCell>
        <mxCell id="9D4-ZQyyOpuwKt-p3H_N-167" value="" style="endArrow=blockThin;html=1;rounded=0;entryX=0;entryY=0.5;entryDx=0;entryDy=0;strokeWidth=1.5;endFill=1;fontFamily=Courier;" parent="1" edge="1">
          <mxGeometry width="50" height="50" relative="1" as="geometry">
            <mxPoint x="81.75" y="443.38" as="sourcePoint" />
            <mxPoint x="106.75" y="443.38" as="targetPoint" />
          </mxGeometry>
        </mxCell>
        <mxCell id="9D4-ZQyyOpuwKt-p3H_N-170" value="" style="endArrow=blockThin;html=1;rounded=0;entryX=0;entryY=0.5;entryDx=0;entryDy=0;strokeWidth=1.5;endFill=1;fontFamily=Courier;" parent="1" edge="1">
          <mxGeometry width="50" height="50" relative="1" as="geometry">
            <mxPoint x="81.75" y="493.63" as="sourcePoint" />
            <mxPoint x="106.75" y="493.63" as="targetPoint" />
          </mxGeometry>
        </mxCell>
        <mxCell id="9D4-ZQyyOpuwKt-p3H_N-171" value="" style="endArrow=blockThin;html=1;rounded=0;entryX=0;entryY=0.5;entryDx=0;entryDy=0;strokeWidth=1.5;endFill=1;fontFamily=Courier;" parent="1" edge="1">
          <mxGeometry width="50" height="50" relative="1" as="geometry">
            <mxPoint x="81.75" y="518.75" as="sourcePoint" />
            <mxPoint x="106.75" y="518.75" as="targetPoint" />
          </mxGeometry>
        </mxCell>
        <mxCell id="9D4-ZQyyOpuwKt-p3H_N-173" style="edgeStyle=orthogonalEdgeStyle;rounded=0;orthogonalLoop=1;jettySize=auto;html=1;exitX=1;exitY=0.5;exitDx=0;exitDy=0;entryX=0;entryY=0.5;entryDx=0;entryDy=0;endArrow=blockThin;endFill=1;strokeWidth=1.5;fontFamily=Courier;" parent="1" source="9D4-ZQyyOpuwKt-p3H_N-175" target="9D4-ZQyyOpuwKt-p3H_N-177" edge="1">
          <mxGeometry relative="1" as="geometry" />
        </mxCell>
        <mxCell id="9D4-ZQyyOpuwKt-p3H_N-174" style="edgeStyle=orthogonalEdgeStyle;rounded=0;orthogonalLoop=1;jettySize=auto;html=1;exitX=1;exitY=0.5;exitDx=0;exitDy=0;entryX=0;entryY=0.5;entryDx=0;entryDy=0;endArrow=blockThin;endFill=1;strokeWidth=1.5;fontFamily=Courier;" parent="1" source="9D4-ZQyyOpuwKt-p3H_N-175" target="9D4-ZQyyOpuwKt-p3H_N-180" edge="1">
          <mxGeometry relative="1" as="geometry" />
        </mxCell>
        <mxCell id="9D4-ZQyyOpuwKt-p3H_N-175" value="1" style="rounded=0;whiteSpace=wrap;html=1;fontSize=15;fontFamily=Courier;strokeWidth=1.5;" parent="1" vertex="1">
          <mxGeometry x="300.5" y="381.25" width="37.5" height="37.5" as="geometry" />
        </mxCell>
        <mxCell id="9D4-ZQyyOpuwKt-p3H_N-176" style="edgeStyle=orthogonalEdgeStyle;rounded=0;orthogonalLoop=1;jettySize=auto;html=1;exitX=1;exitY=0.5;exitDx=0;exitDy=0;entryX=0;entryY=0.25;entryDx=0;entryDy=0;endArrow=blockThin;endFill=1;strokeWidth=1.5;fontFamily=Courier;" parent="1" source="9D4-ZQyyOpuwKt-p3H_N-177" target="9D4-ZQyyOpuwKt-p3H_N-181" edge="1">
          <mxGeometry relative="1" as="geometry" />
        </mxCell>
        <mxCell id="9D4-ZQyyOpuwKt-p3H_N-177" value="2" style="rounded=0;whiteSpace=wrap;html=1;fontSize=15;fontFamily=Courier;strokeWidth=1.5;" parent="1" vertex="1">
          <mxGeometry x="388" y="350" width="37.5" height="37.5" as="geometry" />
        </mxCell>
        <mxCell id="9D4-ZQyyOpuwKt-p3H_N-178" style="edgeStyle=orthogonalEdgeStyle;rounded=0;orthogonalLoop=1;jettySize=auto;html=1;exitX=1;exitY=0.5;exitDx=0;exitDy=0;entryX=0;entryY=0.75;entryDx=0;entryDy=0;endArrow=blockThin;endFill=1;strokeWidth=1.5;fontFamily=Courier;" parent="1" source="9D4-ZQyyOpuwKt-p3H_N-180" target="9D4-ZQyyOpuwKt-p3H_N-181" edge="1">
          <mxGeometry relative="1" as="geometry" />
        </mxCell>
        <mxCell id="9D4-ZQyyOpuwKt-p3H_N-179" style="edgeStyle=orthogonalEdgeStyle;rounded=0;orthogonalLoop=1;jettySize=auto;html=1;exitX=0.5;exitY=1;exitDx=0;exitDy=0;entryX=0.5;entryY=0;entryDx=0;entryDy=0;endArrow=blockThin;endFill=1;strokeWidth=1.5;fontFamily=Courier;" parent="1" source="9D4-ZQyyOpuwKt-p3H_N-180" target="9D4-ZQyyOpuwKt-p3H_N-182" edge="1">
          <mxGeometry relative="1" as="geometry" />
        </mxCell>
        <mxCell id="9D4-ZQyyOpuwKt-p3H_N-180" value="3" style="rounded=0;whiteSpace=wrap;html=1;fontSize=15;fontFamily=Courier;strokeWidth=1.5;" parent="1" vertex="1">
          <mxGeometry x="388" y="413" width="37.5" height="37" as="geometry" />
        </mxCell>
        <mxCell id="9D4-ZQyyOpuwKt-p3H_N-204" style="edgeStyle=orthogonalEdgeStyle;rounded=0;orthogonalLoop=1;jettySize=auto;html=1;exitX=1;exitY=0.5;exitDx=0;exitDy=0;fontFamily=Courier;" parent="1" edge="1">
          <mxGeometry relative="1" as="geometry">
            <mxPoint x="538" y="400.13461538461536" as="targetPoint" />
            <mxPoint x="513" y="400.00000000000006" as="sourcePoint" />
            <Array as="points">
              <mxPoint x="525.5" y="399.75" />
            </Array>
          </mxGeometry>
        </mxCell>
        <mxCell id="9D4-ZQyyOpuwKt-p3H_N-181" value="4" style="rounded=0;whiteSpace=wrap;html=1;fontSize=15;fontFamily=Courier;strokeWidth=1.5;" parent="1" vertex="1">
          <mxGeometry x="475.5" y="381.5" width="37.5" height="37" as="geometry" />
        </mxCell>
        <mxCell id="9D4-ZQyyOpuwKt-p3H_N-184" style="edgeStyle=orthogonalEdgeStyle;rounded=0;orthogonalLoop=1;jettySize=auto;html=1;exitX=0.5;exitY=1;exitDx=0;exitDy=0;strokeWidth=1.5;endArrow=blockThin;endFill=1;fontFamily=Courier;" parent="1" source="9D4-ZQyyOpuwKt-p3H_N-182" edge="1">
          <mxGeometry relative="1" as="geometry">
            <mxPoint x="406" y="550" as="targetPoint" />
          </mxGeometry>
        </mxCell>
        <mxCell id="9D4-ZQyyOpuwKt-p3H_N-182" value="5" style="rounded=0;whiteSpace=wrap;html=1;fontSize=15;fontFamily=Courier;strokeWidth=1.5;" parent="1" vertex="1">
          <mxGeometry x="388" y="487.5" width="37.5" height="37" as="geometry" />
        </mxCell>
        <mxCell id="9D4-ZQyyOpuwKt-p3H_N-185" value="" style="endArrow=blockThin;html=1;rounded=0;entryX=0;entryY=0.5;entryDx=0;entryDy=0;strokeWidth=1.5;endFill=1;fontFamily=Courier;" parent="1" edge="1">
          <mxGeometry width="50" height="50" relative="1" as="geometry">
            <mxPoint x="82.25" y="568.3" as="sourcePoint" />
            <mxPoint x="107.25" y="568.3" as="targetPoint" />
          </mxGeometry>
        </mxCell>
        <mxCell id="9D4-ZQyyOpuwKt-p3H_N-186" value="A" style="text;html=1;align=center;verticalAlign=middle;whiteSpace=wrap;rounded=0;fontSize=15;fontFamily=Courier;" parent="1" vertex="1">
          <mxGeometry x="169.25" y="305.5" width="25" height="25.5" as="geometry" />
        </mxCell>
        <mxCell id="9D4-ZQyyOpuwKt-p3H_N-188" value="B" style="text;html=1;align=center;verticalAlign=middle;whiteSpace=wrap;rounded=0;fontSize=15;fontFamily=Courier;" parent="1" vertex="1">
          <mxGeometry x="169.25" y="368" width="25" height="25.5" as="geometry" />
        </mxCell>
        <mxCell id="9D4-ZQyyOpuwKt-p3H_N-189" value="A" style="text;html=1;align=center;verticalAlign=middle;whiteSpace=wrap;rounded=0;fontSize=15;fontFamily=Courier;" parent="1" vertex="1">
          <mxGeometry x="56.75" y="368" width="25" height="25.5" as="geometry" />
        </mxCell>
        <mxCell id="9D4-ZQyyOpuwKt-p3H_N-190" value="A" style="text;html=1;align=center;verticalAlign=middle;whiteSpace=wrap;rounded=0;fontSize=15;fontFamily=Courier;" parent="1" vertex="1">
          <mxGeometry x="56.75" y="430.75" width="25" height="25.5" as="geometry" />
        </mxCell>
        <mxCell id="9D4-ZQyyOpuwKt-p3H_N-191" value="C" style="text;html=1;align=center;verticalAlign=middle;whiteSpace=wrap;rounded=0;fontSize=15;fontFamily=Courier;" parent="1" vertex="1">
          <mxGeometry x="169.25" y="430.75" width="25" height="25.5" as="geometry" />
        </mxCell>
        <mxCell id="9D4-ZQyyOpuwKt-p3H_N-192" value="B" style="text;html=1;align=center;verticalAlign=middle;whiteSpace=wrap;rounded=0;fontSize=15;fontFamily=Courier;" parent="1" vertex="1">
          <mxGeometry x="56.75" y="475" width="25" height="37.5" as="geometry" />
        </mxCell>
        <mxCell id="9D4-ZQyyOpuwKt-p3H_N-193" value="C" style="text;html=1;align=center;verticalAlign=middle;whiteSpace=wrap;rounded=0;fontSize=15;fontFamily=Courier;" parent="1" vertex="1">
          <mxGeometry x="56.75" y="500" width="25" height="37.5" as="geometry" />
        </mxCell>
        <mxCell id="9D4-ZQyyOpuwKt-p3H_N-194" value="D" style="text;html=1;align=center;verticalAlign=middle;whiteSpace=wrap;rounded=0;fontSize=15;fontFamily=Courier;" parent="1" vertex="1">
          <mxGeometry x="169.25" y="493.25" width="25" height="25.5" as="geometry" />
        </mxCell>
        <mxCell id="9D4-ZQyyOpuwKt-p3H_N-196" value="C" style="text;html=1;align=center;verticalAlign=middle;whiteSpace=wrap;rounded=0;fontSize=15;fontFamily=Courier;" parent="1" vertex="1">
          <mxGeometry x="56.75" y="555.75" width="25" height="25.5" as="geometry" />
        </mxCell>
        <mxCell id="9D4-ZQyyOpuwKt-p3H_N-197" value="E" style="text;html=1;align=center;verticalAlign=middle;whiteSpace=wrap;rounded=0;fontSize=15;fontFamily=Courier;" parent="1" vertex="1">
          <mxGeometry x="169.25" y="555.75" width="25" height="25.5" as="geometry" />
        </mxCell>
        <mxCell id="9D4-ZQyyOpuwKt-p3H_N-198" value="" style="endArrow=blockThin;html=1;rounded=0;entryX=0;entryY=0.5;entryDx=0;entryDy=0;strokeWidth=1.5;endFill=1;fontFamily=Courier;" parent="1" edge="1">
          <mxGeometry width="50" height="50" relative="1" as="geometry">
            <mxPoint x="81.75" y="382" as="sourcePoint" />
            <mxPoint x="106.75" y="382" as="targetPoint" />
          </mxGeometry>
        </mxCell>
        <mxCell id="9D4-ZQyyOpuwKt-p3H_N-200" value="1" style="text;html=1;align=center;verticalAlign=middle;whiteSpace=wrap;rounded=0;fontSize=15;fontFamily=Courier;" parent="1" vertex="1">
          <mxGeometry x="125" y="686.5" width="25" height="25.5" as="geometry" />
        </mxCell>
        <mxCell id="9D4-ZQyyOpuwKt-p3H_N-201" value="2" style="text;html=1;align=center;verticalAlign=middle;whiteSpace=wrap;rounded=0;fontSize=15;fontFamily=Courier;" parent="1" vertex="1">
          <mxGeometry x="125" y="749" width="25" height="25.5" as="geometry" />
        </mxCell>
        <mxCell id="9D4-ZQyyOpuwKt-p3H_N-202" value="3" style="text;html=1;align=center;verticalAlign=middle;whiteSpace=wrap;rounded=0;fontSize=15;fontFamily=Courier;" parent="1" vertex="1">
          <mxGeometry x="125" y="812" width="25" height="25.5" as="geometry" />
        </mxCell>
        <mxCell id="9D4-ZQyyOpuwKt-p3H_N-203" value="4" style="text;html=1;align=center;verticalAlign=middle;whiteSpace=wrap;rounded=0;fontSize=15;fontFamily=Courier;" parent="1" vertex="1">
          <mxGeometry x="125" y="923.5" width="25" height="25.5" as="geometry" />
        </mxCell>
        <mxCell id="9D4-ZQyyOpuwKt-p3H_N-212" style="edgeStyle=orthogonalEdgeStyle;rounded=0;orthogonalLoop=1;jettySize=auto;html=1;exitX=1;exitY=0.5;exitDx=0;exitDy=0;entryX=0;entryY=0.5;entryDx=0;entryDy=0;strokeWidth=1.5;endArrow=blockThin;endFill=1;fontFamily=Courier;fontSize=9.5;" parent="1" source="9D4-ZQyyOpuwKt-p3H_N-205" target="9D4-ZQyyOpuwKt-p3H_N-206" edge="1">
          <mxGeometry relative="1" as="geometry" />
        </mxCell>
        <mxCell id="9D4-ZQyyOpuwKt-p3H_N-205" value="books" style="rounded=0;whiteSpace=wrap;html=1;fontFamily=Courier;strokeWidth=1.5;fontSize=9.5;" parent="1" vertex="1">
          <mxGeometry x="31" y="1050" width="75" height="50" as="geometry" />
        </mxCell>
        <mxCell id="9D4-ZQyyOpuwKt-p3H_N-213" style="edgeStyle=orthogonalEdgeStyle;rounded=0;orthogonalLoop=1;jettySize=auto;html=1;exitX=1;exitY=0.5;exitDx=0;exitDy=0;entryX=0;entryY=0.5;entryDx=0;entryDy=0;strokeWidth=1.5;endArrow=blockThin;endFill=1;fontFamily=Courier;fontSize=9.5;" parent="1" source="9D4-ZQyyOpuwKt-p3H_N-206" target="9D4-ZQyyOpuwKt-p3H_N-207" edge="1">
          <mxGeometry relative="1" as="geometry" />
        </mxCell>
        <mxCell id="9D4-ZQyyOpuwKt-p3H_N-206" value="cleaned books" style="rounded=0;whiteSpace=wrap;html=1;fontFamily=Courier;strokeWidth=1.5;fontSize=9.5;" parent="1" vertex="1">
          <mxGeometry x="149.75" y="1050" width="75" height="50" as="geometry" />
        </mxCell>
        <mxCell id="9D4-ZQyyOpuwKt-p3H_N-214" style="edgeStyle=orthogonalEdgeStyle;rounded=0;orthogonalLoop=1;jettySize=auto;html=1;exitX=1;exitY=0.5;exitDx=0;exitDy=0;entryX=0;entryY=0.5;entryDx=0;entryDy=0;strokeWidth=1.5;endArrow=blockThin;endFill=1;fontFamily=Courier;fontSize=9.5;" parent="1" source="9D4-ZQyyOpuwKt-p3H_N-207" target="9D4-ZQyyOpuwKt-p3H_N-210" edge="1">
          <mxGeometry relative="1" as="geometry" />
        </mxCell>
        <mxCell id="9D4-ZQyyOpuwKt-p3H_N-217" style="edgeStyle=orthogonalEdgeStyle;rounded=0;orthogonalLoop=1;jettySize=auto;html=1;exitX=0.5;exitY=1;exitDx=0;exitDy=0;entryX=0.5;entryY=0;entryDx=0;entryDy=0;strokeWidth=1.5;endArrow=blockThin;endFill=1;fontFamily=Courier;fontSize=9.5;" parent="1" source="9D4-ZQyyOpuwKt-p3H_N-207" target="9D4-ZQyyOpuwKt-p3H_N-208" edge="1">
          <mxGeometry relative="1" as="geometry" />
        </mxCell>
        <mxCell id="9D4-ZQyyOpuwKt-p3H_N-207" value="word counts" style="rounded=0;whiteSpace=wrap;html=1;fontFamily=Courier;strokeWidth=1.5;fontSize=9.5;" parent="1" vertex="1">
          <mxGeometry x="268.5" y="1050" width="75" height="50" as="geometry" />
        </mxCell>
        <mxCell id="9D4-ZQyyOpuwKt-p3H_N-218" style="edgeStyle=orthogonalEdgeStyle;rounded=0;orthogonalLoop=1;jettySize=auto;html=1;exitX=0.5;exitY=1;exitDx=0;exitDy=0;entryX=0.5;entryY=0;entryDx=0;entryDy=0;strokeWidth=1.5;endArrow=blockThin;endFill=1;fontFamily=Courier;fontSize=9.5;" parent="1" source="9D4-ZQyyOpuwKt-p3H_N-208" target="9D4-ZQyyOpuwKt-p3H_N-216" edge="1">
          <mxGeometry relative="1" as="geometry" />
        </mxCell>
        <mxCell id="9D4-ZQyyOpuwKt-p3H_N-208" value="count statistics" style="rounded=0;whiteSpace=wrap;html=1;fontFamily=Courier;strokeWidth=1.5;fontSize=9.5;" parent="1" vertex="1">
          <mxGeometry x="268.5" y="1137.5" width="75" height="50" as="geometry" />
        </mxCell>
        <mxCell id="9D4-ZQyyOpuwKt-p3H_N-215" style="edgeStyle=orthogonalEdgeStyle;rounded=0;orthogonalLoop=1;jettySize=auto;html=1;exitX=1;exitY=0.5;exitDx=0;exitDy=0;entryX=0;entryY=0.5;entryDx=0;entryDy=0;strokeWidth=1.5;endArrow=blockThin;endFill=1;fontFamily=Courier;fontSize=9.5;" parent="1" source="9D4-ZQyyOpuwKt-p3H_N-210" target="9D4-ZQyyOpuwKt-p3H_N-211" edge="1">
          <mxGeometry relative="1" as="geometry" />
        </mxCell>
        <mxCell id="9D4-ZQyyOpuwKt-p3H_N-210" value="pairwise similarities" style="rounded=0;whiteSpace=wrap;html=1;fontFamily=Courier;strokeWidth=1.5;fontSize=9.5;" parent="1" vertex="1">
          <mxGeometry x="381" y="1050" width="75" height="50" as="geometry" />
        </mxCell>
        <mxCell id="9D4-ZQyyOpuwKt-p3H_N-211" value="aggregated similarities" style="rounded=0;whiteSpace=wrap;html=1;fontFamily=Courier;strokeWidth=1.5;fontSize=9.5;" parent="1" vertex="1">
          <mxGeometry x="493.5" y="1050" width="75" height="50" as="geometry" />
        </mxCell>
        <mxCell id="9D4-ZQyyOpuwKt-p3H_N-216" value="aggregated statistics" style="rounded=0;whiteSpace=wrap;html=1;fontFamily=Courier;strokeWidth=1.5;fontSize=9.5;" parent="1" vertex="1">
          <mxGeometry x="268.5" y="1225" width="75" height="50" as="geometry" />
        </mxCell>
        <mxCell id="9D4-ZQyyOpuwKt-p3H_N-224" value="" style="rounded=0;whiteSpace=wrap;html=1;strokeColor=none;fontFamily=Courier;" parent="1" vertex="1">
          <mxGeometry x="125.5" y="25" width="350" height="175" as="geometry" />
        </mxCell>
        <mxCell id="9D4-ZQyyOpuwKt-p3H_N-27" value="" style="shape=cylinder3;whiteSpace=wrap;html=1;boundedLbl=1;backgroundOutline=1;size=6.5;direction=south;rotation=-180;strokeWidth=1.5;fontFamily=Courier;" parent="1" vertex="1">
          <mxGeometry x="350.5" y="75" width="112.5" height="25" as="geometry" />
        </mxCell>
        <mxCell id="9D4-ZQyyOpuwKt-p3H_N-28" value="" style="shape=cylinder3;whiteSpace=wrap;html=1;boundedLbl=1;backgroundOutline=1;size=6.5;direction=south;rotation=-180;strokeWidth=1.5;fontFamily=Courier;" parent="1" vertex="1">
          <mxGeometry x="350.5" y="112.5" width="112.5" height="25" as="geometry" />
        </mxCell>
        <mxCell id="9D4-ZQyyOpuwKt-p3H_N-29" value="" style="shape=cylinder3;whiteSpace=wrap;html=1;boundedLbl=1;backgroundOutline=1;size=6.5;direction=south;rotation=-180;strokeWidth=1.5;fontFamily=Courier;" parent="1" vertex="1">
          <mxGeometry x="350.5" y="149.5" width="112.5" height="25" as="geometry" />
        </mxCell>
        <mxCell id="9D4-ZQyyOpuwKt-p3H_N-12" value="" style="shape=cube;whiteSpace=wrap;html=1;boundedLbl=1;backgroundOutline=1;darkOpacity=0.05;darkOpacity2=0.1;size=25;strokeWidth=2;fontFamily=Courier;" parent="1" vertex="1">
          <mxGeometry x="225.5" y="37.5" width="150" height="150" as="geometry" />
        </mxCell>
        <mxCell id="9D4-ZQyyOpuwKt-p3H_N-17" value="" style="shape=cylinder3;whiteSpace=wrap;html=1;boundedLbl=1;backgroundOutline=1;size=6.5;direction=south;rotation=-180;strokeWidth=1.5;fontFamily=Courier;" parent="1" vertex="1">
          <mxGeometry x="138" y="125.5" width="103.75" height="25" as="geometry" />
        </mxCell>
        <mxCell id="9D4-ZQyyOpuwKt-p3H_N-20" value="&lt;font style=&quot;font-size: 21px;&quot;&gt;process&lt;/font&gt;" style="text;html=1;align=center;verticalAlign=middle;whiteSpace=wrap;rounded=0;fontFamily=Courier;" parent="1" vertex="1">
          <mxGeometry x="250.5" y="62.5" width="125" height="125" as="geometry" />
        </mxCell>
        <mxCell id="9D4-ZQyyOpuwKt-p3H_N-26" value="" style="shape=cylinder3;whiteSpace=wrap;html=1;boundedLbl=1;backgroundOutline=1;size=6.5;direction=south;rotation=-180;strokeWidth=1.5;fontFamily=Courier;" parent="1" vertex="1">
          <mxGeometry x="138" y="75" width="103.75" height="25" as="geometry" />
        </mxCell>
        <mxCell id="9D4-ZQyyOpuwKt-p3H_N-19" value="&lt;font style=&quot;font-size: 15px;&quot;&gt;in_A&lt;/font&gt;" style="text;html=1;align=center;verticalAlign=middle;whiteSpace=wrap;rounded=0;fontFamily=Courier;fontSize=15;" parent="1" vertex="1">
          <mxGeometry x="159.88" y="75" width="60" height="25" as="geometry" />
        </mxCell>
        <mxCell id="9D4-ZQyyOpuwKt-p3H_N-30" value="&lt;font style=&quot;font-size: 15px;&quot;&gt;in_B&lt;/font&gt;" style="text;html=1;align=center;verticalAlign=middle;whiteSpace=wrap;rounded=0;fontFamily=Courier;fontSize=15;" parent="1" vertex="1">
          <mxGeometry x="159.88" y="124.5" width="60" height="25" as="geometry" />
        </mxCell>
        <mxCell id="9D4-ZQyyOpuwKt-p3H_N-31" value="&lt;font style=&quot;font-size: 15px;&quot;&gt;out_A&lt;/font&gt;" style="text;html=1;align=center;verticalAlign=middle;whiteSpace=wrap;rounded=0;fontFamily=Courier;fontSize=15;" parent="1" vertex="1">
          <mxGeometry x="388" y="75" width="60" height="25" as="geometry" />
        </mxCell>
        <mxCell id="9D4-ZQyyOpuwKt-p3H_N-32" value="&lt;font style=&quot;font-size: 15px;&quot;&gt;out_B&lt;/font&gt;" style="text;html=1;align=center;verticalAlign=middle;whiteSpace=wrap;rounded=0;fontFamily=Courier;fontSize=15;" parent="1" vertex="1">
          <mxGeometry x="388" y="112.5" width="60" height="25" as="geometry" />
        </mxCell>
        <mxCell id="9D4-ZQyyOpuwKt-p3H_N-33" value="&lt;font style=&quot;font-size: 15px;&quot;&gt;out_C&lt;/font&gt;" style="text;html=1;align=center;verticalAlign=middle;whiteSpace=wrap;rounded=0;fontFamily=Courier;fontSize=15;" parent="1" vertex="1">
          <mxGeometry x="388" y="149.5" width="60" height="25" as="geometry" />
        </mxCell>
        <mxCell id="aNcpbkEtWrwuVBVgQpSq-1" value="" style="shape=cylinder3;whiteSpace=wrap;html=1;boundedLbl=1;backgroundOutline=1;size=6.5;direction=south;rotation=-180;strokeWidth=1.5;fontFamily=Courier;fontSize=11;" parent="1" vertex="1">
          <mxGeometry x="175.75" y="1362.5" width="342.25" height="50" as="geometry" />
        </mxCell>
        <mxCell id="aNcpbkEtWrwuVBVgQpSq-2" value="val(meta)" style="text;html=1;align=center;verticalAlign=middle;whiteSpace=wrap;rounded=0;fontFamily=Courier;fontSize=11;" parent="1" vertex="1">
          <mxGeometry x="75.75" y="1375" width="87.5" height="25" as="geometry" />
        </mxCell>
        <mxCell id="aNcpbkEtWrwuVBVgQpSq-3" value="" style="shape=cylinder3;whiteSpace=wrap;html=1;boundedLbl=1;backgroundOutline=1;size=6.5;direction=south;rotation=-180;strokeWidth=1.5;fontFamily=Courier;fontSize=11;" parent="1" vertex="1">
          <mxGeometry x="175.75" y="1437.5" width="342.25" height="50" as="geometry" />
        </mxCell>
        <mxCell id="aNcpbkEtWrwuVBVgQpSq-4" value="path(inpath)" style="text;html=1;align=center;verticalAlign=middle;whiteSpace=wrap;rounded=0;fontSize=11;fontFamily=Courier;" parent="1" vertex="1">
          <mxGeometry x="75.75" y="1450" width="87.5" height="25" as="geometry" />
        </mxCell>
        <mxCell id="aNcpbkEtWrwuVBVgQpSq-5" value="" style="shape=cylinder3;whiteSpace=wrap;html=1;boundedLbl=1;backgroundOutline=1;size=6.5;direction=south;rotation=-180;strokeWidth=1.5;fontFamily=Courier;fontSize=11;" parent="1" vertex="1">
          <mxGeometry x="175.75" y="1537.5" width="342.25" height="50" as="geometry" />
        </mxCell>
        <mxCell id="aNcpbkEtWrwuVBVgQpSq-6" value="tuple&lt;div&gt;val(meta),&lt;/div&gt;&lt;div&gt;path(inpath)&lt;/div&gt;" style="text;html=1;align=center;verticalAlign=middle;whiteSpace=wrap;rounded=0;fontSize=11;fontFamily=Courier;" parent="1" vertex="1">
          <mxGeometry x="75.75" y="1537.5" width="87.5" height="50" as="geometry" />
        </mxCell>
        <mxCell id="aNcpbkEtWrwuVBVgQpSq-11" value="" style="shape=cylinder3;whiteSpace=wrap;html=1;boundedLbl=1;backgroundOutline=1;size=6.5;direction=south;rotation=-180;strokeWidth=1.5;fillColor=#E6E6E6;fontFamily=Courier;fontSize=11;" parent="1" vertex="1">
          <mxGeometry x="213.25" y="1437.5" width="75" height="50" as="geometry" />
        </mxCell>
        <mxCell id="aNcpbkEtWrwuVBVgQpSq-15" value="" style="shape=cylinder3;whiteSpace=wrap;html=1;boundedLbl=1;backgroundOutline=1;size=6.5;direction=south;rotation=-180;strokeWidth=1.5;fillColor=#E6E6E6;fontFamily=Courier;fontSize=11;" parent="1" vertex="1">
          <mxGeometry x="313.25" y="1437.5" width="75" height="50" as="geometry" />
        </mxCell>
        <mxCell id="aNcpbkEtWrwuVBVgQpSq-16" value="" style="shape=cylinder3;whiteSpace=wrap;html=1;boundedLbl=1;backgroundOutline=1;size=6.5;direction=south;rotation=-180;strokeWidth=1.5;fillColor=#E6E6E6;fontFamily=Courier;fontSize=11;" parent="1" vertex="1">
          <mxGeometry x="413.75" y="1437.5" width="75" height="50" as="geometry" />
        </mxCell>
        <mxCell id="aNcpbkEtWrwuVBVgQpSq-17" value="" style="shape=cylinder3;whiteSpace=wrap;html=1;boundedLbl=1;backgroundOutline=1;size=6.5;direction=south;rotation=-180;strokeWidth=1.5;fillColor=#E6E6E6;fontFamily=Courier;fontSize=11;" parent="1" vertex="1">
          <mxGeometry x="213.25" y="1362.5" width="75" height="50" as="geometry" />
        </mxCell>
        <mxCell id="aNcpbkEtWrwuVBVgQpSq-18" value="" style="shape=cylinder3;whiteSpace=wrap;html=1;boundedLbl=1;backgroundOutline=1;size=6.5;direction=south;rotation=-180;strokeWidth=1.5;fillColor=#E6E6E6;fontFamily=Courier;fontSize=11;" parent="1" vertex="1">
          <mxGeometry x="313.25" y="1362.5" width="75" height="50" as="geometry" />
        </mxCell>
        <mxCell id="aNcpbkEtWrwuVBVgQpSq-19" value="" style="shape=cylinder3;whiteSpace=wrap;html=1;boundedLbl=1;backgroundOutline=1;size=6.5;direction=south;rotation=-180;strokeWidth=1.5;fillColor=#E6E6E6;fontFamily=Courier;fontSize=11;" parent="1" vertex="1">
          <mxGeometry x="413.75" y="1362.5" width="75" height="50" as="geometry" />
        </mxCell>
        <mxCell id="aNcpbkEtWrwuVBVgQpSq-12" value="meta_1" style="text;html=1;align=center;verticalAlign=middle;whiteSpace=wrap;rounded=0;fontFamily=Courier;fontSize=11;" parent="1" vertex="1">
          <mxGeometry x="225.75" y="1375" width="62.5" height="25" as="geometry" />
        </mxCell>
        <mxCell id="aNcpbkEtWrwuVBVgQpSq-20" value="meta_2" style="text;html=1;align=center;verticalAlign=middle;whiteSpace=wrap;rounded=0;fontFamily=Courier;fontSize=11;" parent="1" vertex="1">
          <mxGeometry x="326.25" y="1375" width="62.5" height="25" as="geometry" />
        </mxCell>
        <mxCell id="aNcpbkEtWrwuVBVgQpSq-21" value="meta_3" style="text;html=1;align=center;verticalAlign=middle;whiteSpace=wrap;rounded=0;fontFamily=Courier;fontSize=11;" parent="1" vertex="1">
          <mxGeometry x="426.25" y="1375" width="62.5" height="25" as="geometry" />
        </mxCell>
        <mxCell id="aNcpbkEtWrwuVBVgQpSq-22" value="inpath_2" style="text;html=1;align=center;verticalAlign=middle;whiteSpace=wrap;rounded=0;fontFamily=Courier;fontSize=11;" parent="1" vertex="1">
          <mxGeometry x="426.25" y="1450" width="62.5" height="25" as="geometry" />
        </mxCell>
        <mxCell id="aNcpbkEtWrwuVBVgQpSq-23" value="inpath_3" style="text;html=1;align=center;verticalAlign=middle;whiteSpace=wrap;rounded=0;fontFamily=Courier;fontSize=11;" parent="1" vertex="1">
          <mxGeometry x="225.75" y="1450" width="62.5" height="25" as="geometry" />
        </mxCell>
        <mxCell id="aNcpbkEtWrwuVBVgQpSq-13" value="inpath_1" style="text;html=1;align=center;verticalAlign=middle;whiteSpace=wrap;rounded=0;fontFamily=Courier;fontSize=11;" parent="1" vertex="1">
          <mxGeometry x="326.25" y="1450" width="62.5" height="25" as="geometry" />
        </mxCell>
        <mxCell id="aNcpbkEtWrwuVBVgQpSq-25" value="" style="shape=cylinder3;whiteSpace=wrap;html=1;boundedLbl=1;backgroundOutline=1;size=6.5;direction=south;rotation=-180;strokeWidth=1.5;fillColor=#E6E6E6;fontFamily=Courier;fontSize=11;" parent="1" vertex="1">
          <mxGeometry x="213.25" y="1537.5" width="75" height="50" as="geometry" />
        </mxCell>
        <mxCell id="aNcpbkEtWrwuVBVgQpSq-26" value="" style="shape=cylinder3;whiteSpace=wrap;html=1;boundedLbl=1;backgroundOutline=1;size=6.5;direction=south;rotation=-180;strokeWidth=1.5;fillColor=#E6E6E6;fontFamily=Courier;fontSize=11;" parent="1" vertex="1">
          <mxGeometry x="313.75" y="1537.5" width="75" height="50" as="geometry" />
        </mxCell>
        <mxCell id="aNcpbkEtWrwuVBVgQpSq-27" value="" style="shape=cylinder3;whiteSpace=wrap;html=1;boundedLbl=1;backgroundOutline=1;size=6.5;direction=south;rotation=-180;strokeWidth=1.5;fillColor=#E6E6E6;fontFamily=Courier;fontSize=11;" parent="1" vertex="1">
          <mxGeometry x="413.75" y="1537.5" width="75" height="50" as="geometry" />
        </mxCell>
        <mxCell id="aNcpbkEtWrwuVBVgQpSq-28" value="meta_1,&lt;div&gt;input_1&lt;/div&gt;" style="text;html=1;align=center;verticalAlign=middle;whiteSpace=wrap;rounded=0;fontFamily=Courier;fontSize=11;" parent="1" vertex="1">
          <mxGeometry x="225.75" y="1537.5" width="62.5" height="50" as="geometry" />
        </mxCell>
        <mxCell id="aNcpbkEtWrwuVBVgQpSq-29" value="meta_2,&lt;div&gt;input_2&lt;/div&gt;" style="text;html=1;align=center;verticalAlign=middle;whiteSpace=wrap;rounded=0;fontFamily=Courier;fontSize=11;" parent="1" vertex="1">
          <mxGeometry x="326.25" y="1537.5" width="62.5" height="50" as="geometry" />
        </mxCell>
        <mxCell id="aNcpbkEtWrwuVBVgQpSq-30" value="meta_3,&lt;div&gt;input_3&lt;/div&gt;" style="text;html=1;align=center;verticalAlign=middle;whiteSpace=wrap;rounded=0;fontFamily=Courier;fontSize=11;" parent="1" vertex="1">
          <mxGeometry x="426.25" y="1537.5" width="62.5" height="50" as="geometry" />
        </mxCell>
      </root>
    </mxGraphModel>
  </diagram>
</mxfile>
